The girl who played with fire - Swedish  
http://www.imdb.com/title/tt1216487/

Source  :

The.Girl.Who.Played.With.Fire.2009.1080p.BluRay.x264-FLHD



Info    :

ID                               : 1
Format                           : AVC
Format/Info                      : Advanced Video Codec
Format profile                   : Baseline@L2.1
Format settings, CABAC           : No
Format settings, ReFrames        : 3 frames
Codec ID                         : avc1
Codec ID/Info                    : Advanced Video Coding
Duration                         : 2h 9mn
Bit rate mode                    : Variable
Bit rate                         : 400 Kbps
Width                            : 480 pixels
Height                           : 272 pixels
Display aspect ratio             : 16:9
Frame rate mode                  : Variable
Frame rate                       : 24.000 fps
Minimum frame rate               : 23.810 fps
Maximum frame rate               : 24.390 fps
Color space                      : YUV
Chroma subsampling               : 4:2:0
Bit depth                        : 8 bits
Scan type                        : Progressive
Bits/(Pixel*Frame)               : 0.128
Stream size                      : 370 MiB (75%)
Writing library                  : x264 core 79

ID                               : 2
Format                           : AAC
Format/Info                      : Advanced Audio Codec
Format version                   : Version 4
Format profile                   : LC
Format settings, SBR             : No
Codec ID                         : 40
Duration                         : 2h 9mn
Bit rate mode                    : Variable
Bit rate                         : 128 Kbps
Maximum bit rate                 : 216 Kbps
Channel(s)                       : 2 channels
Channel positions                : Front: L R
Sampling rate                    : 48.0 KHz
Stream size                      : 118 MiB (24%)
Language                         : Swedish

Screens : 
http://img267.imageshack.us/img267/2115/vlcsnap00001l.png 
http://img704.imageshack.us/img704/4834/vlcsnap00002h.png 
http://img32.imageshack.us/img32/3526/vlcsnap00003k.png 
http://img709.imageshack.us/img709/5591/vlcsnap00004j.png 
http://img180.imageshack.us/img180/5996/vlcsnap00005b.png 
http://img697.imageshack.us/img697/5555/vlcsnap00006ey.png 
http://img149.imageshack.us/img149/517/vlcsnap00007ra.png 
http://img808.imageshack.us/img808/8104/vlcsnap00008.png
  




THIS MOVIE IS IN SWEDISH WITH ENGLISH SUBS! REASON? 
THE DUBBED VERSION IS A SHAME FOR THE ENTIRE MOVIE!!!!





PLEASE LET THE TORRENT SEED AND SHARE IT WITH ALL YOU KNOW!

Let me know what I can do to be your trusted source of Handheld videos. 
http://thepiratebay.org/user/on.off.on/ -OOO